# xmcd CD database file
#
# Track frame offsets:
#	150
#	2575
#	12595
#	28340
#	39162
#	56170
#	70765
#	84782
#	94375
#	107520
#	122075
#	133897
#	149615
#	163202
#
# Disc length: 2257 seconds
#
# Revision: 0
# Processed by: cddbd v1.5PL3 Copyright (c) Steve Scherf et al.
# Submitted via: CDex 1.51
#
DISCID=c008cf0e
DTITLE=Patsy Riggir - Country
DYEAR=1986
DGENRE=Country
TTITLE0=Beautiful Lady Theme
TTITLE1=Happy Street
TTITLE2=Do I Love You
TTITLE3=Just For What I Am
TTITLE4=When All The Magic Is Gone
TTITLE5=The Old Rugged Cross
TTITLE6=Pardon Me
TTITLE7=Hey Good Looking
TTITLE8=Back Home Again
TTITLE9=Crazy
TTITLE10=Walking After Midnight
TTITLE11=Without You
TTITLE12=Think Of Me
TTITLE13=Beautiful Lady Theme
EXTD=YEAR: 1986
EXTT0=
EXTT1=
EXTT2=
EXTT3=
EXTT4=
EXTT5=
EXTT6=
EXTT7=
EXTT8=
EXTT9=
EXTT10=
EXTT11=
EXTT12=
EXTT13=
PLAYORDER=
